<?xml version="1.0" encoding="UTF-8" standalone="no"?>
<!-- Created with Inkscape (http://www.inkscape.org/) -->

<svg
   width="512"
   height="512"
   viewBox="0 0 512 512"
   version="1.1"
   id="SVGRoot"
   xmlns="http://www.w3.org/2000/svg"
   xmlns:svg="http://www.w3.org/2000/svg">
  <defs
     id="defs3918" />
  <g
     id="layer1">
    <path
       id="path711"
       style="opacity:1;fill:#d20000;stroke-width:11.0921;stroke-linecap:round;paint-order:stroke fill markers"
       d="M 256 0 A 256 256 0 0 0 0 256 A 256 256 0 0 0 256 512 A 256 256 0 0 0 512 256 A 256 256 0 0 0 256 0 z M 232.51367 94.087891 L 352.77734 94.087891 C 368.64675 94.087891 381.5 106.94114 381.5 122.81055 L 381.5 243.06055 C 381.5 250.68647 378.46953 257.99463 373.08398 263.39453 L 216.54297 419.90625 C 205.32668 431.12254 187.14598 431.12254 175.92969 419.90625 L 55.666016 299.64453 C 44.449723 288.41388 44.449723 270.23192 55.666016 259.01562 L 212.20703 102.50391 C 217.59258 97.118359 224.90211 94.087891 232.51367 94.087891 z M 410.22266 122.81055 C 426.09207 122.81055 438.94531 135.66379 438.94531 151.5332 L 438.94531 271.75391 C 438.94531 279.36548 435.91554 286.675 430.51562 292.06055 L 286.87109 435.67578 C 275.65479 446.89208 257.47412 446.89208 246.25781 435.67578 L 243.81641 433.23438 L 402.88281 274.16602 C 407.57901 269.48418 410.20898 263.12259 410.20898 256.50195 L 410.22266 122.81055 z M 302.51172 151.5332 C 290.62044 151.5332 280.96875 161.18489 280.96875 173.07617 C 280.96875 184.96745 290.62044 194.61914 302.51172 194.61914 C 314.403 194.61914 324.05273 184.96745 324.05273 173.07617 C 324.05273 161.18489 314.403 151.5332 302.51172 151.5332 z " />
    <g
       id="g1799"
       transform="matrix(0.8975924,0,0,0.8975924,47.254005,73.242332)" />
  </g>
</svg>
