<?xml version="1.0" encoding="UTF-8" standalone="no"?>
<!-- Created with Inkscape (http://www.inkscape.org/) -->

<svg
   width="512px"
   height="512px"
   viewBox="0 0 512 512"
   version="1.1"
   id="SVGRoot"
   xmlns="http://www.w3.org/2000/svg"
   xmlns:svg="http://www.w3.org/2000/svg">
  <defs
     id="defs3918" />
  <g
     id="layer1">
    <path
       id="path711"
       style="fill:#d20000;stroke-width:11.0921;stroke-linecap:round;paint-order:stroke fill markers"
       d="M 256 0 A 256 256 0 0 0 0 256 A 256 256 0 0 0 256 512 A 256 256 0 0 0 512 256 A 256 256 0 0 0 256 0 z M 261.93555 96.058594 L 383.16211 96.058594 C 399.19995 96.058594 412.32812 109.18787 412.32812 125.22656 L 412.32812 246.47852 C 412.32813 254.48077 407.68245 265.70817 402.02148 271.36914 L 235.82031 437.54297 C 224.48043 448.89139 205.91263 448.89225 194.58984 437.55664 L 70.839844 313.81055 C 59.491421 302.48861 59.491421 283.90201 70.839844 272.56641 L 237.04102 106.36719 C 242.70711 100.70537 253.9162 96.058594 261.93555 96.058594 z M 324.82422 154.39062 C 308.71546 154.39062 295.65625 167.43701 295.65625 183.55859 C 295.65625 199.65368 308.71546 212.72656 324.82422 212.72656 C 340.93298 212.72656 353.99695 199.65368 353.99609 183.55859 C 353.99609 167.43701 340.93298 154.39062 324.82422 154.39062 z " />
    <g
       id="g341"
       transform="matrix(0.85448645,0,0,0.85448645,62.328845,96.057653)">
	<g
   id="g339">
		
	</g>

</g>
  </g>
</svg>
